# xmcd
#
# Track frame offsets:
#	182
#	12162
#	21662
#	35305
#	47002
#	60020
#	71027
#	83210
#	97740
#	110825
#	121815
#	134132
#	146017
#	157720
#	169957
#	179315
#	191020
#	205137
#	216785
#	229310
#	242665
#	253672
#	266872
#	277820
#	290117
#	301365
#	315395
#
# Disc length: 4445
#
# Revision: 1
# Processed by: cddbd v1.5.1PL0 Copyright (c) Steve Scherf et al.
# Submitted via: dBpowerAMP V4.0
# Normalized: r0:DSETVAR1,TDELIM( - ),TSWAP
#
DISCID=89115b1b
DTITLE=Various Artist - House Rockin´Blues
DYEAR=1995
DGENRE=Blues
TTITLE0=G.L.Crockett - Track01 Look Out
TTITLE1=J.B.Lenoir - Track02 Mama Talk To Your Daughter
TTITLE2=Muddy Waters - Track03 Young Fashioned Ways
TTITLE3=Howlin´Wolf - Track04 I Have A Little Girl
TTITLE4=Bo Diddley - Track05 You Don´t Love Me (You Don´t Care)
TTITLE5=Morris Pejoe - Track06 Tired Of Crying Over You
TTITLE6=Otis Spann - Track07 I´m Leaving You
TTITLE7=John Brim - Track08 Rattlesnake
TTITLE8=Willie Mabon - Track09 Poison Ivy
TTITLE9=Billy Boy Arnold - Track10 You Got To Love Me
TTITLE10=Little Walter - Track11 Mellow Down Easy
TTITLE11=Bo Diddley - Track12 Little Girl
TTITLE12=Blue Smitty - Track13 Date Bait
TTITLE13=John Brim - Track14 I Would Hate To See You Go (Be Careful)
TTITLE14=Jimmy Rogers - Track15 If It Ain´t Me
TTITLE15=Howlin´Wolf - Track16 Who Will Be Next
TTITLE16=Muddy Waters - Track17 Close To You
TTITLE17=Billy Bob Arnold - Track18 Sweet On You Baby
TTITLE18=Sonny Boy Williamson - Track19 The Goat
TTITLE19=Jimmy McCracklin - Track20 He Knows The Rules
TTITLE20=Otis Rush - Track21 I´m Satisfied
TTITLE21=Buddy Guy - Track22 Let Me Love You Baby
TTITLE22=Elmore James - Track23 Madison Blues
TTITLE23=Little Walter - Track24 I Got To Go
TTITLE24=Little Luther - Track25 Twirl
TTITLE25=Robert Nighthawk - Track26 Someday
TTITLE26=John Lee Hooker - Track27 Let´s Go Out Tonight
EXTD=
EXTT0=
EXTT1=
EXTT2=
EXTT3=
EXTT4=
EXTT5=
EXTT6=
EXTT7=
EXTT8=
EXTT9=
EXTT10=
EXTT11=
EXTT12=
EXTT13=
EXTT14=
EXTT15=
EXTT16=
EXTT17=
EXTT18=
EXTT19=
EXTT20=
EXTT21=
EXTT22=
EXTT23=
EXTT24=
EXTT25=
EXTT26=
PLAYORDER=
